HIERARCHY
ROOT joint_Root
{
	OFFSET 0.0 0.0 0.0
	CHANNELS 6 Xposition Yposition Zposition Zrotation Xrotation Yrotation 
	JOINT Hips
	{
		OFFSET -17.1583 93.1646 452.98
		CHANNELS 6 Xposition Yposition Zposition Zrotation Xrotation Yrotation 
		JOINT Spine
		{
			OFFSET 15.7357 0.0 0.0
			CHANNELS 6 Xposition Yposition Zposition Zrotation Xrotation Yrotation 
			JOINT Chest
			{
				OFFSET 8.98455 -0.406207 0.0
				CHANNELS 6 Xposition Yposition Zposition Zrotation Xrotation Yrotation 
				JOINT Neck
				{
					OFFSET 16.3773 0.0 0.0
					CHANNELS 6 Xposition Yposition Zposition Zrotation Xrotation Yrotation 
					JOINT Head
					{
						OFFSET 6.45672 0.0 0.0
						CHANNELS 6 Xposition Yposition Zposition Zrotation Xrotation Yrotation 
						End Site
						{
							OFFSET 0.0 0.0 0.0
						}
					}
				}
				JOINT Shoulder_L
				{
					OFFSET 12.9942 -0.242716 4.98039
					CHANNELS 6 Xposition Yposition Zposition Zrotation Xrotation Yrotation 
					JOINT UpperArm_L
					{
						OFFSET 5.34809 0.0 0.0
						CHANNELS 6 Xposition Yposition Zposition Zrotation Xrotation Yrotation 
						JOINT LowerArm_L
						{
							OFFSET 24.3286 1.87007e-05 0.0
							CHANNELS 6 Xposition Yposition Zposition Zrotation Xrotation Yrotation 
							JOINT Hand_L
							{
								OFFSET 22.2916 0.0 0.0
								CHANNELS 6 Xposition Yposition Zposition Zrotation Xrotation Yrotation 
								End Site
								{
									OFFSET 0.0 0.0 0.0
								}
							}
						}
					}
				}
				JOINT Shoulder_R
				{
					OFFSET 12.9945 -0.242716 -4.98039
					CHANNELS 6 Xposition Yposition Zposition Zrotation Xrotation Yrotation 
					JOINT UpperArm_R
					{
						OFFSET -5.34813 0.0 0.0
						CHANNELS 6 Xposition Yposition Zposition Zrotation Xrotation Yrotation 
						JOINT LowerArm_R
						{
							OFFSET -24.3289 0.000322201 0.0
							CHANNELS 6 Xposition Yposition Zposition Zrotation Xrotation Yrotation 
							JOINT Hand_R
							{
								OFFSET -22.2915 -0.000108084 0.0
								CHANNELS 6 Xposition Yposition Zposition Zrotation Xrotation Yrotation 
								End Site
								{
									OFFSET 0.0 0.0 0.0
								}
							}
						}
					}
				}
			}
		}
		JOINT UpperLeg_L
		{
			OFFSET -2.19248 -6.46944 0.0
			CHANNELS 6 Xposition Yposition Zposition Zrotation Xrotation Yrotation 
			JOINT LowerLeg_L
			{
				OFFSET 39.0811 0.0 -1.23785e-05
				CHANNELS 6 Xposition Yposition Zposition Zrotation Xrotation Yrotation 
				JOINT Foot_L
				{
					OFFSET 40.9854 0.0 -1.26872e-05
					CHANNELS 6 Xposition Yposition Zposition Zrotation Xrotation Yrotation 
					JOINT Toes_L
					{
						OFFSET 11.7543 0.0 0.0
						CHANNELS 6 Xposition Yposition Zposition Zrotation Xrotation Yrotation 
						End Site
						{
							OFFSET 0.0 0.0 0.0
						}
					}
				}
			}
		}
		JOINT UpperLeg_R
		{
			OFFSET -2.19251 6.46944 0.0
			CHANNELS 6 Xposition Yposition Zposition Zrotation Xrotation Yrotation 
			JOINT LowerLeg_R
			{
				OFFSET -39.0811 -0.00228153 -0.0401928
				CHANNELS 6 Xposition Yposition Zposition Zrotation Xrotation Yrotation 
				JOINT Foot_R
				{
					OFFSET -40.9854 0.0 0.0
					CHANNELS 6 Xposition Yposition Zposition Zrotation Xrotation Yrotation 
					JOINT Toes_R
					{
						OFFSET -11.7543 0.0 0.0
						CHANNELS 6 Xposition Yposition Zposition Zrotation Xrotation Yrotation 
						End Site
						{
							OFFSET 0.0 0.0 0.0
						}
					}
				}
			}
		}
	}
}
MOTION
Frames:	8
Frame Time:	0.0333333
0.000000 0.000000 0.000000 0.000000 0.000000 -0.000000 -0.754312 88.900900 -38.869400 85.105400 1.019020 -6.629210 15.735700 0.000005 -0.000001 60.732700 83.595300 -57.570100 8.984550 -0.406207 -0.000000 3.610930 -6.369150 6.524430 16.377300 -0.000001 -0.000001 -1.205390 5.257260 -4.253890 6.456720 -0.000001 -0.000000 -11.267700 8.996940 -0.389858 12.994200 -0.242716 4.980390 -93.071200 9.852870 -72.591200 5.348090 -0.000007 -0.000001 -70.443200 -11.765700 1.549950 24.328600 0.000019 0.000005 54.300400 15.599200 -79.063400 22.291600 -0.000001 0.000005 40.405900 4.035980 23.713900 12.994500 -0.242716 -4.980390 88.725600 3.579890 -70.390700 -5.348130 -0.000001 -0.000004 -58.415900 -14.029800 19.876600 -24.328900 0.000322 -0.000009 2.499180 4.087330 -31.497500 -22.291500 -0.000108 -0.000004 54.754700 5.235490 1.813790 -2.192480 -6.469440 -0.000000 -174.941000 -6.885540 -10.773800 39.081100 -0.000007 -0.000012 0.200046 -0.026009 82.590100 40.985400 -0.000006 -0.000013 -1.216250 -8.192230 -33.951600 11.754300 -0.000000 0.000003 0.002486 0.082140 -13.245600 -2.192510 6.469440 -0.000001 -171.823000 -3.533850 147.129000 -39.081100 -0.002282 -0.040193 0.356689 -0.465446 37.209300 -40.985400 0.000008 0.000006 1.933690 -5.583860 -69.862000 -11.754300 -0.000006 -0.000006 -0.005525 0.234128 -7.069030
0.000000 0.000000 0.000000 0.000000 0.000000 -0.000000 -1.470320 85.983400 -29.733200 84.145800 1.164610 -5.462630 15.735700 0.000005 -0.000001 71.829700 83.439700 -68.673700 8.984550 -0.406207 -0.000000 4.833260 -4.164470 6.483110 16.377300 -0.000001 -0.000001 -2.816070 4.349220 -3.075570 6.456720 -0.000001 -0.000000 -12.255100 7.495250 -0.351691 12.994200 -0.242716 4.980390 -93.276800 10.722300 -72.895300 5.348090 -0.000007 -0.000001 -66.272300 -18.785200 6.984280 24.328600 0.000019 0.000005 52.886500 15.081600 -78.862400 22.291600 -0.000001 0.000005 40.130400 3.949890 24.933800 12.994500 -0.242716 -4.980390 88.232500 4.883660 -70.075400 -5.348130 -0.000001 -0.000004 -61.515000 -12.475000 12.423200 -24.328900 0.000322 -0.000009 2.266220 3.264030 -34.822500 -22.291500 -0.000108 -0.000004 56.501300 5.205850 2.570650 -2.192480 -6.469440 -0.000000 -173.057000 -6.119370 -20.642300 39.081100 -0.000007 -0.000012 0.200471 0.020572 95.856000 40.985400 -0.000006 -0.000013 -4.073520 -3.054240 -36.397200 11.754300 -0.000000 0.000003 0.002477 0.089313 -12.954800 -2.192510 6.469440 -0.000001 -169.969000 -0.326641 147.929000 -39.081100 -0.002282 -0.040193 0.059842 -0.047055 50.259200 -40.985400 0.000008 0.000006 -0.968824 -1.654930 -79.587300 -11.754300 -0.000006 -0.000006 -0.009346 0.266351 -5.753560
0.000000 0.000000 0.000000 0.000000 0.000000 -0.000000 -1.843030 84.715900 -20.551300 83.413200 -1.302840 -4.710830 15.735700 0.000005 -0.000001 83.461800 82.912300 -80.568700 8.984550 -0.406207 -0.000000 6.367470 -1.644520 5.871490 16.377300 -0.000001 -0.000001 -4.622770 4.596870 -1.971480 6.456720 -0.000001 -0.000000 -13.137700 6.417000 -0.337712 12.994200 -0.242716 4.980390 -93.335600 10.285700 -71.922100 5.348090 -0.000007 -0.000001 -60.882500 -23.745500 14.245300 24.328600 0.000019 0.000005 52.859600 14.648300 -79.157200 22.291600 -0.000001 0.000005 41.275200 3.918510 25.373400 12.994500 -0.242716 -4.980390 88.103500 5.544500 -71.083500 -5.348130 -0.000001 -0.000004 -64.842500 -8.095860 3.366210 -24.328900 0.000322 -0.000009 3.265080 3.722620 -41.266000 -22.291500 -0.000108 -0.000004 55.944900 5.192220 2.915040 -2.192480 -6.469440 -0.000000 -172.433000 -7.475540 -29.846100 39.081100 -0.000007 -0.000012 0.146104 0.031787 102.270000 40.985400 -0.000006 -0.000013 -4.568610 1.712900 -41.711200 11.754300 -0.000000 0.000003 0.002466 0.091503 -12.866000 -2.192510 6.469440 -0.000001 -169.091000 -1.033140 154.465000 -39.081100 -0.002282 -0.040193 -0.019813 0.017187 53.287700 -40.985400 0.000008 0.000006 -0.591803 -0.014788 -86.261700 -11.754300 -0.000006 -0.000006 -0.005233 0.231370 -7.181480
0.000000 0.000000 0.000000 0.000000 0.000000 -0.000000 -1.489030 85.710800 -11.103100 85.283000 -2.381890 -5.328570 15.735700 0.000005 -0.000001 90.772700 83.194800 -88.822500 8.984550 -0.406207 -0.000000 5.843590 0.150420 3.888150 16.377300 -0.000001 -0.000001 -4.749660 3.914950 -1.197520 6.456720 -0.000001 -0.000000 -13.393900 4.867760 -0.293144 12.994200 -0.242716 4.980390 -93.222600 9.500850 -71.165100 5.348090 -0.000007 -0.000001 -54.862000 -25.015000 21.541600 24.328600 0.000019 0.000005 52.592100 15.386200 -78.529400 22.291600 -0.000001 0.000005 41.987600 3.963840 24.738700 12.994500 -0.242716 -4.980390 88.176100 5.463020 -71.505400 -5.348130 -0.000001 -0.000004 -66.211500 -3.443810 -2.289360 -24.328900 0.000322 -0.000009 6.128580 4.850130 -51.769800 -22.291500 -0.000108 -0.000004 55.678700 5.158800 3.734020 -2.192480 -6.469440 -0.000000 -176.038000 -7.206520 -37.990000 39.081100 -0.000007 -0.000012 -0.010980 -0.001958 100.167000 40.985400 -0.000006 -0.000013 -3.067270 -2.001390 -50.623700 11.754300 -0.000000 0.000003 0.002467 0.091345 -12.872400 -2.192510 6.469440 -0.000001 -171.909000 -0.635437 163.726000 -39.081100 -0.002282 -0.040193 -0.019794 0.021076 47.561900 -40.985400 0.000008 0.000006 -0.932534 2.320930 -87.738600 -11.754300 -0.000006 -0.000006 -0.000911 0.181805 -9.198530
0.000000 0.000000 0.000000 0.000000 0.000000 -0.000000 -0.763305 88.438100 -1.513470 88.595400 -2.072380 -7.742700 15.735700 0.000005 -0.000001 99.431400 84.145100 -98.855500 8.984550 -0.406207 -0.000000 3.777940 1.896210 1.088010 16.377300 -0.000001 -0.000001 -4.722560 2.479000 -0.483031 6.456720 -0.000001 -0.000000 -13.195000 2.349810 -0.143941 12.994200 -0.242716 4.980390 -92.747900 8.078880 -71.143600 5.348090 -0.000007 -0.000001 -50.600900 -25.762500 26.105900 24.328600 0.000019 0.000005 51.807300 16.400900 -77.475800 22.291600 -0.000001 0.000005 41.622400 3.983270 24.464200 12.994500 -0.242716 -4.980390 88.498100 4.523240 -71.610200 -5.348130 -0.000001 -0.000004 -66.910900 -0.122648 -4.509630 -24.328900 0.000322 -0.000009 7.180480 3.611740 -63.431000 -22.291500 -0.000108 -0.000004 54.635200 5.134010 4.323410 -2.192480 -6.469440 -0.000000 178.728000 -4.027190 -44.332800 39.081100 -0.000007 -0.000012 -0.158364 0.000991 89.644800 40.985400 -0.000006 -0.000013 -2.272070 -9.356430 -57.835200 11.754300 -0.000000 0.000003 0.002468 0.091229 -12.877100 -2.192510 6.469440 -0.000001 -176.787000 2.311830 172.153000 -39.081100 -0.002282 -0.040193 -0.016021 0.025654 36.964000 -40.985400 0.000008 0.000006 -2.083380 5.316070 -79.670500 -11.754300 -0.000006 -0.000006 0.001242 0.024481 -15.580100
0.000000 0.000000 0.000000 0.000000 0.000000 -0.000000 0.079172 91.730000 8.129410 92.504000 -2.344360 -11.059700 15.735700 0.000005 -0.000001 112.683000 85.274000 -113.740000 8.984550 -0.406207 -0.000000 0.992603 3.706020 -2.145540 16.377300 -0.000001 -0.000001 -4.575070 1.282770 0.159467 6.456720 -0.000001 -0.000000 -12.229100 0.243763 -0.163187 12.994200 -0.242716 4.980390 -92.050100 6.029070 -71.180100 5.348090 -0.000007 -0.000001 -47.718700 -26.164600 29.422000 24.328600 0.000019 0.000005 50.382700 17.021300 -76.379100 22.291600 -0.000001 0.000005 41.629200 4.030070 23.800300 12.994500 -0.242716 -4.980390 89.130200 2.674470 -71.978700 -5.348130 -0.000001 -0.000004 -68.142200 1.878650 -5.126040 -24.328900 0.000322 -0.000009 9.238250 2.863180 -72.925700 -22.291500 -0.000108 -0.000004 52.134800 5.112190 4.834320 -2.192480 -6.469440 -0.000000 174.631000 0.260226 -47.205400 39.081100 -0.000007 -0.000012 -0.136107 0.042936 72.494100 40.985400 -0.000006 -0.000013 -2.663120 -11.412200 -62.358900 11.754300 -0.000000 0.000003 0.002478 0.088987 -12.968000 -2.192510 6.469440 -0.000001 178.273000 5.343420 178.161000 -39.081100 -0.002282 -0.040193 0.003026 0.000585 25.910000 -40.985400 0.000008 0.000006 0.319934 5.518750 -63.553100 -11.754300 -0.000006 -0.000006 -0.029235 -0.213934 -25.335600
0.000000 0.000000 0.000000 0.000000 0.000000 -0.000000 0.299063 94.366600 17.912500 93.401100 -2.184740 -13.057900 15.735700 0.000005 -0.000001 127.395000 85.789700 -128.995000 8.984550 -0.406207 -0.000000 -1.001120 5.235190 -3.155110 16.377300 -0.000001 -0.000001 -4.056260 0.514076 0.458034 6.456720 -0.000001 -0.000000 -11.322900 -1.429710 -0.145004 12.994200 -0.242716 4.980390 -91.680800 4.830100 -70.786300 5.348090 -0.000007 -0.000001 -44.695700 -25.277000 31.305400 24.328600 0.000019 0.000005 50.961000 18.104200 -75.856700 22.291600 -0.000001 0.000005 41.884500 4.077970 23.108300 12.994500 -0.242716 -4.980390 89.495600 1.553760 -72.012600 -5.348130 -0.000001 -0.000004 -68.478100 3.734500 -5.784400 -24.328900 0.000322 -0.000009 9.468610 1.876080 -78.900300 -22.291500 -0.000108 -0.000004 50.228600 5.113660 4.797210 -2.192480 -6.469440 -0.000000 175.793000 4.016380 -45.628400 39.081100 -0.000007 -0.000012 -0.049912 0.039086 51.938300 40.985400 -0.000006 -0.000013 -3.453260 -4.860600 -64.370600 11.754300 -0.000000 0.000003 0.002457 0.093063 -12.802700 -2.192510 6.469440 -0.000001 177.647000 7.607990 -177.359000 -39.081100 -0.002282 -0.040193 0.003603 -0.000845 18.198900 -40.985400 0.000008 0.000006 4.886930 4.472950 -43.883400 -11.754300 -0.000006 -0.000006 -0.028835 -0.212072 -25.258400
0.000000 0.000000 0.000000 0.000000 0.000000 -0.000000 -0.094539 95.490100 28.393600 90.699200 -1.332860 -11.790400 15.735700 0.000005 -0.000001 132.295000 85.502800 -132.966000 8.984550 -0.406207 -0.000000 -1.077320 6.103220 -1.284150 16.377300 -0.000001 -0.000001 -3.341100 0.249927 0.639927 6.456720 -0.000001 -0.000000 -10.908700 -2.299030 -0.566846 12.994200 -0.242716 4.980390 -91.784000 4.899990 -69.966300 5.348090 -0.000007 -0.000001 -41.332700 -25.175000 32.335000 24.328600 0.000019 0.000005 50.754600 19.170700 -74.983500 22.291600 -0.000001 0.000005 42.158300 4.078280 23.103300 12.994500 -0.242716 -4.980390 89.475600 1.600840 -71.858500 -5.348130 -0.000001 -0.000004 -67.908000 5.100940 -6.475550 -24.328900 0.000322 -0.000009 8.474120 1.182740 -82.113400 -22.291500 -0.000108 -0.000004 48.884500 5.140130 4.179810 -2.192480 -6.469440 -0.000000 -179.555000 5.298010 -39.401800 39.081100 -0.000007 -0.000012 -0.021375 0.034337 31.903000 40.985400 -0.000006 -0.000013 -5.890230 3.345030 -66.816200 11.754300 -0.000000 0.000003 0.002455 0.093314 -12.792500 -2.192510 6.469440 -0.000001 179.993000 10.786900 -173.524000 -39.081100 -0.002282 -0.040193 0.030776 -0.078486 19.279100 -40.985400 0.000008 0.000006 3.892910 1.140810 -28.182100 -11.754300 -0.000006 -0.000006 -0.001828 0.194211 -8.694210
